<mxfile host="app.diagrams.net" modified="2023-04-14T22:11:42.059Z" agent="Mozilla/5.0 (Macintosh; Intel Mac OS X 10.15; rv:109.0) Gecko/20100101 Firefox/111.0" etag="5kYUkqFi1NrymbCrPno8" version="21.1.1" type="device">
  <diagram id="x_4oePnBLAE4x2WjNidO" name="Page-1">
    <mxGraphModel dx="1118" dy="1273" grid="1" gridSize="10" guides="1" tooltips="1" connect="1" arrows="1" fold="1" page="1" pageScale="1" pageWidth="150" pageHeight="313" math="0" shadow="0">
      <root>
        <mxCell id="0" />
        <mxCell id="1" parent="0" />
        <mxCell id="ifN1dxxj9spyeU7Set-M-2" value="instruction decode" style="rounded=0;whiteSpace=wrap;html=1;" parent="1" vertex="1">
          <mxGeometry x="-75" y="-40" width="120" height="50" as="geometry" />
        </mxCell>
        <mxCell id="ifN1dxxj9spyeU7Set-M-3" value="program counter" style="rounded=0;whiteSpace=wrap;html=1;" parent="1" vertex="1">
          <mxGeometry x="80" y="-140" width="120" height="60" as="geometry" />
        </mxCell>
        <mxCell id="ifN1dxxj9spyeU7Set-M-4" value="program memory&lt;br&gt;(read only)" style="rounded=0;whiteSpace=wrap;html=1;" parent="1" vertex="1">
          <mxGeometry x="-75" y="-140" width="120" height="60" as="geometry" />
        </mxCell>
        <mxCell id="ifN1dxxj9spyeU7Set-M-5" value="" style="endArrow=classic;html=1;entryX=1;entryY=0.5;entryDx=0;entryDy=0;" parent="1" source="ifN1dxxj9spyeU7Set-M-3" target="ifN1dxxj9spyeU7Set-M-4" edge="1">
          <mxGeometry width="50" height="50" relative="1" as="geometry">
            <mxPoint x="115" y="-140" as="sourcePoint" />
            <mxPoint x="165" y="-190" as="targetPoint" />
          </mxGeometry>
        </mxCell>
        <mxCell id="ifN1dxxj9spyeU7Set-M-6" value="ALU" style="shape=trapezoid;perimeter=trapezoidPerimeter;whiteSpace=wrap;html=1;rotation=0;size=0.2349206349206352;flipV=1;" parent="1" vertex="1">
          <mxGeometry x="-240" y="-40" width="120" height="50" as="geometry" />
        </mxCell>
        <mxCell id="ifN1dxxj9spyeU7Set-M-14" value="&lt;div&gt;RAM&lt;/div&gt;&lt;div&gt;data stack&lt;/div&gt;" style="rounded=0;whiteSpace=wrap;html=1;" parent="1" vertex="1">
          <mxGeometry x="-240" y="-140" width="120" height="60" as="geometry" />
        </mxCell>
        <mxCell id="ifN1dxxj9spyeU7Set-M-15" value="" style="endArrow=classic;html=1;exitX=0.25;exitY=1;exitDx=0;exitDy=0;entryX=0.25;entryY=0;entryDx=0;entryDy=0;" parent="1" source="ifN1dxxj9spyeU7Set-M-14" target="ifN1dxxj9spyeU7Set-M-6" edge="1">
          <mxGeometry width="50" height="50" relative="1" as="geometry">
            <mxPoint x="-170" y="40" as="sourcePoint" />
            <mxPoint x="-120" y="-10" as="targetPoint" />
          </mxGeometry>
        </mxCell>
        <mxCell id="ifN1dxxj9spyeU7Set-M-16" value="" style="endArrow=classic;html=1;exitX=0.75;exitY=1;exitDx=0;exitDy=0;entryX=0.75;entryY=0;entryDx=0;entryDy=0;" parent="1" source="ifN1dxxj9spyeU7Set-M-14" target="ifN1dxxj9spyeU7Set-M-6" edge="1">
          <mxGeometry width="50" height="50" relative="1" as="geometry">
            <mxPoint x="-170" y="40" as="sourcePoint" />
            <mxPoint x="-120" y="-10" as="targetPoint" />
          </mxGeometry>
        </mxCell>
        <mxCell id="ifN1dxxj9spyeU7Set-M-18" style="edgeStyle=orthogonalEdgeStyle;rounded=0;orthogonalLoop=1;jettySize=auto;html=1;exitX=0.5;exitY=1;exitDx=0;exitDy=0;" parent="1" source="ifN1dxxj9spyeU7Set-M-2" target="ifN1dxxj9spyeU7Set-M-2" edge="1">
          <mxGeometry relative="1" as="geometry" />
        </mxCell>
        <mxCell id="ifN1dxxj9spyeU7Set-M-30" value="" style="edgeStyle=segmentEdgeStyle;endArrow=classic;html=1;entryX=0;entryY=0.5;entryDx=0;entryDy=0;" parent="1" target="ifN1dxxj9spyeU7Set-M-14" edge="1">
          <mxGeometry width="50" height="50" relative="1" as="geometry">
            <mxPoint x="-180" y="10" as="sourcePoint" />
            <mxPoint x="-240" y="-130" as="targetPoint" />
            <Array as="points">
              <mxPoint x="-180" y="40" />
              <mxPoint x="-280" y="40" />
              <mxPoint x="-280" y="-110" />
            </Array>
          </mxGeometry>
        </mxCell>
        <mxCell id="ifN1dxxj9spyeU7Set-M-34" value="" style="endArrow=classic;html=1;exitX=0;exitY=0.5;exitDx=0;exitDy=0;" parent="1" source="ifN1dxxj9spyeU7Set-M-2" target="ifN1dxxj9spyeU7Set-M-6" edge="1">
          <mxGeometry width="50" height="50" relative="1" as="geometry">
            <mxPoint x="-140" y="-60" as="sourcePoint" />
            <mxPoint x="-90" y="-110" as="targetPoint" />
          </mxGeometry>
        </mxCell>
        <mxCell id="ifN1dxxj9spyeU7Set-M-35" value="" style="endArrow=classic;html=1;exitX=0.5;exitY=1;exitDx=0;exitDy=0;entryX=0.5;entryY=0;entryDx=0;entryDy=0;" parent="1" source="ifN1dxxj9spyeU7Set-M-4" target="ifN1dxxj9spyeU7Set-M-2" edge="1">
          <mxGeometry width="50" height="50" relative="1" as="geometry">
            <mxPoint x="-140" y="-60" as="sourcePoint" />
            <mxPoint x="-90" y="-110" as="targetPoint" />
          </mxGeometry>
        </mxCell>
      </root>
    </mxGraphModel>
  </diagram>
</mxfile>
